<svg width="96" height="145" viewBox="0 0 96 145" fill="none" xmlns="http://www.w3.org/2000/svg">
<g clip-path="url(#clip0_46_3113)">
<rect x="1.86475" y="2.47754" width="92.4322" height="140.447" rx="3.42307" fill="#5E7D16"/>
<g style="mix-blend-mode:overlay" opacity="0.17">
<rect x="-3.38184" y="140.41" width="10.779" height="102.925" transform="rotate(-90 -3.38184 140.41)" fill="black"/>
<rect x="-3.38184" y="118.852" width="10.779" height="102.925" transform="rotate(-90 -3.38184 118.852)" fill="black"/>
<rect x="-3.38184" y="97.2939" width="10.779" height="102.925" transform="rotate(-90 -3.38184 97.2939)" fill="black"/>
<rect x="-3.38184" y="75.7363" width="10.779" height="102.925" transform="rotate(-90 -3.38184 75.7363)" fill="black"/>
<rect x="-3.38184" y="54.1787" width="10.779" height="102.925" transform="rotate(-90 -3.38184 54.1787)" fill="black"/>
<rect x="-3.38184" y="32.6201" width="10.779" height="102.925" transform="rotate(-90 -3.38184 32.6201)" fill="black"/>
<rect x="-3.38184" y="11.0625" width="10.779" height="102.925" transform="rotate(-90 -3.38184 11.0625)" fill="black"/>
</g>
<rect opacity="0.35" x="35.6196" y="141.559" width="8.59372" height="24.5804" transform="rotate(-90 35.6196 141.559)" stroke="#E1EBF7" stroke-width="0.565316"/>
<rect opacity="0.35" x="35.6196" y="10.6519" width="8.59372" height="24.5804" transform="rotate(-90 35.6196 10.6519)" stroke="#E1EBF7" stroke-width="0.565316"/>
<line opacity="0.35" x1="94.4951" y1="76.1011" x2="1.38754" y2="76.1011" stroke="#E1EBF7" stroke-width="0.684615"/>
<circle opacity="0.35" cx="47.5157" cy="75.7011" r="13.7061" transform="rotate(-90 47.5157 75.7011)" stroke="#E1EBF7" stroke-width="0.56453"/>
<path opacity="0.35" fill-rule="evenodd" clip-rule="evenodd" d="M36.1306 118.244L23.5795 118.244H23.0142V118.809V142.325V142.89H23.5795L72.2407 142.89H72.806V142.325V118.809V118.244H72.2407L59.9667 118.244C59.9534 118.222 59.94 118.201 59.9265 118.179C57.4564 114.219 53.0603 111.583 48.0487 111.583C43.0371 111.583 38.641 114.219 36.1709 118.179C36.1574 118.201 36.144 118.222 36.1306 118.244ZM48.0487 112.148C52.7304 112.148 56.853 114.544 59.2557 118.179H36.8417C39.2444 114.544 43.367 112.148 48.0487 112.148ZM23.5795 142.325L23.5795 118.809L72.2407 118.809V142.325L23.5795 142.325Z" fill="#E1EBF7"/>
<path opacity="0.35" fill-rule="evenodd" clip-rule="evenodd" d="M23.5785 25.8543L23.5785 2.33875L72.2397 2.33875V25.8543L23.5785 25.8543ZM23.0132 26.4196V25.8543V2.33875V1.77344L23.5785 1.77344L72.2397 1.77344L72.805 1.77344V2.33875V25.8543V26.4196H72.2397H59.9652C59.952 26.4409 59.9388 26.4623 59.9255 26.4835C57.4554 30.4442 53.0593 33.0797 48.0477 33.0797C43.0361 33.0797 38.64 30.4442 36.1699 26.4835C36.1566 26.4623 36.1434 26.4409 36.1302 26.4196H23.5785H23.0132ZM48.0477 32.5152C43.3661 32.5152 39.2435 30.1188 36.8407 26.4835L59.2547 26.4835C56.852 30.1188 52.7294 32.5152 48.0477 32.5152Z" fill="#E1EBF7"/>
<g filter="url(#filter0_d_46_3113)">
<rect x="42.5059" y="129.68" width="11.0174" height="11.0174" rx="5.50872" fill="#1A487C" shape-rendering="crispEdges"/>
<rect x="42.6728" y="129.847" width="10.6836" height="10.6836" rx="5.34178" stroke="#87B2F7" stroke-width="0.333862" shape-rendering="crispEdges"/>
</g>
<g filter="url(#filter1_d_46_3113)">
<rect x="27.9912" y="105.929" width="11.0174" height="11.0174" rx="5.50872" fill="#1A487C" shape-rendering="crispEdges"/>
<rect x="28.1581" y="106.096" width="10.6836" height="10.6836" rx="5.34178" stroke="#87B2F7" stroke-width="0.333862" shape-rendering="crispEdges"/>
</g>
<g filter="url(#filter2_d_46_3113)">
<rect x="4.23999" y="91.6777" width="11.0174" height="11.0174" rx="5.50872" fill="#1A487C" shape-rendering="crispEdges"/>
<rect x="4.40692" y="91.8447" width="10.6836" height="10.6836" rx="5.34178" stroke="#87B2F7" stroke-width="0.333862" shape-rendering="crispEdges"/>
</g>
<g filter="url(#filter3_d_46_3113)">
<rect x="81.0359" y="91.6777" width="11.0174" height="11.0174" rx="5.50872" fill="#1A487C" shape-rendering="crispEdges"/>
<rect x="81.2028" y="91.8447" width="10.6836" height="10.6836" rx="5.34178" stroke="#87B2F7" stroke-width="0.333862" shape-rendering="crispEdges"/>
</g>
<g filter="url(#filter4_d_46_3113)">
<rect x="14.7959" y="60.0098" width="11.0174" height="11.0174" rx="5.50872" fill="#1A487C" shape-rendering="crispEdges"/>
<rect x="14.9628" y="60.1767" width="10.6836" height="10.6836" rx="5.34178" stroke="#87B2F7" stroke-width="0.333862" shape-rendering="crispEdges"/>
</g>
<g filter="url(#filter5_d_46_3113)">
<rect x="70.4797" y="60.0098" width="11.0174" height="11.0174" rx="5.50872" fill="#1A487C" shape-rendering="crispEdges"/>
<rect x="70.6467" y="60.1767" width="10.6836" height="10.6836" rx="5.34178" stroke="#87B2F7" stroke-width="0.333862" shape-rendering="crispEdges"/>
</g>
<g filter="url(#filter6_d_46_3113)">
<rect x="57.2847" y="105.929" width="11.0174" height="11.0174" rx="5.50872" fill="#1A487C" shape-rendering="crispEdges"/>
<rect x="57.4516" y="106.096" width="10.6836" height="10.6836" rx="5.34178" stroke="#87B2F7" stroke-width="0.333862" shape-rendering="crispEdges"/>
</g>
<g filter="url(#filter7_d_46_3113)">
<rect x="27.9912" y="76.8994" width="11.0174" height="11.0174" rx="5.50872" fill="#1A487C" shape-rendering="crispEdges"/>
<rect x="28.1581" y="77.0663" width="10.6836" height="10.6836" rx="5.34178" stroke="#87B2F7" stroke-width="0.333862" shape-rendering="crispEdges"/>
</g>
<g filter="url(#filter8_d_46_3113)">
<rect x="57.2847" y="76.8994" width="11.0174" height="11.0174" rx="5.50872" fill="#1A487C" shape-rendering="crispEdges"/>
<rect x="57.4516" y="77.0663" width="10.6836" height="10.6836" rx="5.34178" stroke="#87B2F7" stroke-width="0.333862" shape-rendering="crispEdges"/>
</g>
<g filter="url(#filter9_d_46_3113)">
<rect x="42" y="60" width="11.0174" height="11.0174" rx="5.50872" fill="#1A487C" shape-rendering="crispEdges"/>
<rect x="42.1669" y="60.1669" width="10.6836" height="10.6836" rx="5.34178" stroke="#87B2F7" stroke-width="0.333862" shape-rendering="crispEdges"/>
</g>
<g filter="url(#filter10_d_46_3113)">
<rect x="42" y="32" width="11.0174" height="11.0174" rx="5.50872" fill="#1A487C" shape-rendering="crispEdges"/>
<rect x="42.1669" y="32.1669" width="10.6836" height="10.6836" rx="5.34178" stroke="#87B2F7" stroke-width="0.333862" shape-rendering="crispEdges"/>
</g>
</g>
<rect x="1.00898" y="1.62177" width="94.1438" height="142.158" rx="4.27884" stroke="#E1EBF7" stroke-width="1.71154"/>
<defs>
<filter id="filter0_d_46_3113" x="41.8381" y="129.68" width="12.3528" height="13.0207" filterUnits="userSpaceOnUse" color-interpolation-filters="sRGB">
<feFlood flood-opacity="0" result="BackgroundImageFix"/>
<feColorMatrix in="SourceAlpha" type="matrix" values="0 0 0 0 0 0 0 0 0 0 0 0 0 0 0 0 0 0 127 0" result="hardAlpha"/>
<feOffset dy="1.33545"/>
<feGaussianBlur stdDeviation="0.333862"/>
<feComposite in2="hardAlpha" operator="out"/>
<feColorMatrix type="matrix" values="0 0 0 0 0 0 0 0 0 0 0 0 0 0 0 0 0 0 0.25 0"/>
<feBlend mode="normal" in2="BackgroundImageFix" result="effect1_dropShadow_46_3113"/>
<feBlend mode="normal" in="SourceGraphic" in2="effect1_dropShadow_46_3113" result="shape"/>
</filter>
<filter id="filter1_d_46_3113" x="27.3235" y="105.929" width="12.3528" height="13.0207" filterUnits="userSpaceOnUse" color-interpolation-filters="sRGB">
<feFlood flood-opacity="0" result="BackgroundImageFix"/>
<feColorMatrix in="SourceAlpha" type="matrix" values="0 0 0 0 0 0 0 0 0 0 0 0 0 0 0 0 0 0 127 0" result="hardAlpha"/>
<feOffset dy="1.33545"/>
<feGaussianBlur stdDeviation="0.333862"/>
<feComposite in2="hardAlpha" operator="out"/>
<feColorMatrix type="matrix" values="0 0 0 0 0 0 0 0 0 0 0 0 0 0 0 0 0 0 0.25 0"/>
<feBlend mode="normal" in2="BackgroundImageFix" result="effect1_dropShadow_46_3113"/>
<feBlend mode="normal" in="SourceGraphic" in2="effect1_dropShadow_46_3113" result="shape"/>
</filter>
<filter id="filter2_d_46_3113" x="3.57227" y="91.6777" width="12.3528" height="13.0207" filterUnits="userSpaceOnUse" color-interpolation-filters="sRGB">
<feFlood flood-opacity="0" result="BackgroundImageFix"/>
<feColorMatrix in="SourceAlpha" type="matrix" values="0 0 0 0 0 0 0 0 0 0 0 0 0 0 0 0 0 0 127 0" result="hardAlpha"/>
<feOffset dy="1.33545"/>
<feGaussianBlur stdDeviation="0.333862"/>
<feComposite in2="hardAlpha" operator="out"/>
<feColorMatrix type="matrix" values="0 0 0 0 0 0 0 0 0 0 0 0 0 0 0 0 0 0 0.25 0"/>
<feBlend mode="normal" in2="BackgroundImageFix" result="effect1_dropShadow_46_3113"/>
<feBlend mode="normal" in="SourceGraphic" in2="effect1_dropShadow_46_3113" result="shape"/>
</filter>
<filter id="filter3_d_46_3113" x="80.3682" y="91.6777" width="12.3528" height="13.0207" filterUnits="userSpaceOnUse" color-interpolation-filters="sRGB">
<feFlood flood-opacity="0" result="BackgroundImageFix"/>
<feColorMatrix in="SourceAlpha" type="matrix" values="0 0 0 0 0 0 0 0 0 0 0 0 0 0 0 0 0 0 127 0" result="hardAlpha"/>
<feOffset dy="1.33545"/>
<feGaussianBlur stdDeviation="0.333862"/>
<feComposite in2="hardAlpha" operator="out"/>
<feColorMatrix type="matrix" values="0 0 0 0 0 0 0 0 0 0 0 0 0 0 0 0 0 0 0.25 0"/>
<feBlend mode="normal" in2="BackgroundImageFix" result="effect1_dropShadow_46_3113"/>
<feBlend mode="normal" in="SourceGraphic" in2="effect1_dropShadow_46_3113" result="shape"/>
</filter>
<filter id="filter4_d_46_3113" x="14.1282" y="60.0098" width="12.3528" height="13.0207" filterUnits="userSpaceOnUse" color-interpolation-filters="sRGB">
<feFlood flood-opacity="0" result="BackgroundImageFix"/>
<feColorMatrix in="SourceAlpha" type="matrix" values="0 0 0 0 0 0 0 0 0 0 0 0 0 0 0 0 0 0 127 0" result="hardAlpha"/>
<feOffset dy="1.33545"/>
<feGaussianBlur stdDeviation="0.333862"/>
<feComposite in2="hardAlpha" operator="out"/>
<feColorMatrix type="matrix" values="0 0 0 0 0 0 0 0 0 0 0 0 0 0 0 0 0 0 0.25 0"/>
<feBlend mode="normal" in2="BackgroundImageFix" result="effect1_dropShadow_46_3113"/>
<feBlend mode="normal" in="SourceGraphic" in2="effect1_dropShadow_46_3113" result="shape"/>
</filter>
<filter id="filter5_d_46_3113" x="69.812" y="60.0098" width="12.3528" height="13.0207" filterUnits="userSpaceOnUse" color-interpolation-filters="sRGB">
<feFlood flood-opacity="0" result="BackgroundImageFix"/>
<feColorMatrix in="SourceAlpha" type="matrix" values="0 0 0 0 0 0 0 0 0 0 0 0 0 0 0 0 0 0 127 0" result="hardAlpha"/>
<feOffset dy="1.33545"/>
<feGaussianBlur stdDeviation="0.333862"/>
<feComposite in2="hardAlpha" operator="out"/>
<feColorMatrix type="matrix" values="0 0 0 0 0 0 0 0 0 0 0 0 0 0 0 0 0 0 0.25 0"/>
<feBlend mode="normal" in2="BackgroundImageFix" result="effect1_dropShadow_46_3113"/>
<feBlend mode="normal" in="SourceGraphic" in2="effect1_dropShadow_46_3113" result="shape"/>
</filter>
<filter id="filter6_d_46_3113" x="56.6169" y="105.929" width="12.3528" height="13.0207" filterUnits="userSpaceOnUse" color-interpolation-filters="sRGB">
<feFlood flood-opacity="0" result="BackgroundImageFix"/>
<feColorMatrix in="SourceAlpha" type="matrix" values="0 0 0 0 0 0 0 0 0 0 0 0 0 0 0 0 0 0 127 0" result="hardAlpha"/>
<feOffset dy="1.33545"/>
<feGaussianBlur stdDeviation="0.333862"/>
<feComposite in2="hardAlpha" operator="out"/>
<feColorMatrix type="matrix" values="0 0 0 0 0 0 0 0 0 0 0 0 0 0 0 0 0 0 0.25 0"/>
<feBlend mode="normal" in2="BackgroundImageFix" result="effect1_dropShadow_46_3113"/>
<feBlend mode="normal" in="SourceGraphic" in2="effect1_dropShadow_46_3113" result="shape"/>
</filter>
<filter id="filter7_d_46_3113" x="27.3235" y="76.8994" width="12.3528" height="13.0207" filterUnits="userSpaceOnUse" color-interpolation-filters="sRGB">
<feFlood flood-opacity="0" result="BackgroundImageFix"/>
<feColorMatrix in="SourceAlpha" type="matrix" values="0 0 0 0 0 0 0 0 0 0 0 0 0 0 0 0 0 0 127 0" result="hardAlpha"/>
<feOffset dy="1.33545"/>
<feGaussianBlur stdDeviation="0.333862"/>
<feComposite in2="hardAlpha" operator="out"/>
<feColorMatrix type="matrix" values="0 0 0 0 0 0 0 0 0 0 0 0 0 0 0 0 0 0 0.25 0"/>
<feBlend mode="normal" in2="BackgroundImageFix" result="effect1_dropShadow_46_3113"/>
<feBlend mode="normal" in="SourceGraphic" in2="effect1_dropShadow_46_3113" result="shape"/>
</filter>
<filter id="filter8_d_46_3113" x="56.6169" y="76.8994" width="12.3528" height="13.0207" filterUnits="userSpaceOnUse" color-interpolation-filters="sRGB">
<feFlood flood-opacity="0" result="BackgroundImageFix"/>
<feColorMatrix in="SourceAlpha" type="matrix" values="0 0 0 0 0 0 0 0 0 0 0 0 0 0 0 0 0 0 127 0" result="hardAlpha"/>
<feOffset dy="1.33545"/>
<feGaussianBlur stdDeviation="0.333862"/>
<feComposite in2="hardAlpha" operator="out"/>
<feColorMatrix type="matrix" values="0 0 0 0 0 0 0 0 0 0 0 0 0 0 0 0 0 0 0.25 0"/>
<feBlend mode="normal" in2="BackgroundImageFix" result="effect1_dropShadow_46_3113"/>
<feBlend mode="normal" in="SourceGraphic" in2="effect1_dropShadow_46_3113" result="shape"/>
</filter>
<filter id="filter9_d_46_3113" x="41.3323" y="60" width="12.3528" height="13.0207" filterUnits="userSpaceOnUse" color-interpolation-filters="sRGB">
<feFlood flood-opacity="0" result="BackgroundImageFix"/>
<feColorMatrix in="SourceAlpha" type="matrix" values="0 0 0 0 0 0 0 0 0 0 0 0 0 0 0 0 0 0 127 0" result="hardAlpha"/>
<feOffset dy="1.33545"/>
<feGaussianBlur stdDeviation="0.333862"/>
<feComposite in2="hardAlpha" operator="out"/>
<feColorMatrix type="matrix" values="0 0 0 0 0 0 0 0 0 0 0 0 0 0 0 0 0 0 0.25 0"/>
<feBlend mode="normal" in2="BackgroundImageFix" result="effect1_dropShadow_46_3113"/>
<feBlend mode="normal" in="SourceGraphic" in2="effect1_dropShadow_46_3113" result="shape"/>
</filter>
<filter id="filter10_d_46_3113" x="41.3323" y="32" width="12.3528" height="13.0207" filterUnits="userSpaceOnUse" color-interpolation-filters="sRGB">
<feFlood flood-opacity="0" result="BackgroundImageFix"/>
<feColorMatrix in="SourceAlpha" type="matrix" values="0 0 0 0 0 0 0 0 0 0 0 0 0 0 0 0 0 0 127 0" result="hardAlpha"/>
<feOffset dy="1.33545"/>
<feGaussianBlur stdDeviation="0.333862"/>
<feComposite in2="hardAlpha" operator="out"/>
<feColorMatrix type="matrix" values="0 0 0 0 0 0 0 0 0 0 0 0 0 0 0 0 0 0 0.25 0"/>
<feBlend mode="normal" in2="BackgroundImageFix" result="effect1_dropShadow_46_3113"/>
<feBlend mode="normal" in="SourceGraphic" in2="effect1_dropShadow_46_3113" result="shape"/>
</filter>
<clipPath id="clip0_46_3113">
<rect x="1.86475" y="2.47754" width="92.4322" height="140.447" rx="3.42307" fill="white"/>
</clipPath>
</defs>
</svg>
