<svg width="95" height="142" viewBox="0 0 95 142" fill="none" xmlns="http://www.w3.org/2000/svg">
<g clip-path="url(#clip0_46_3409)">
<rect x="2.25293" y="1.9707" width="90.7913" height="137.954" rx="3.3623" fill="#5E7D16"/>
<g style="mix-blend-mode:overlay" opacity="0.17">
<rect x="-2.90015" y="137.454" width="10.5876" height="101.098" transform="rotate(-90 -2.90015 137.454)" fill="black"/>
<rect x="-2.90015" y="116.278" width="10.5876" height="101.098" transform="rotate(-90 -2.90015 116.278)" fill="black"/>
<rect x="-2.90015" y="95.1035" width="10.5876" height="101.098" transform="rotate(-90 -2.90015 95.1035)" fill="black"/>
<rect x="-2.90015" y="73.9277" width="10.5876" height="101.098" transform="rotate(-90 -2.90015 73.9277)" fill="black"/>
<rect x="-2.90015" y="52.7529" width="10.5876" height="101.098" transform="rotate(-90 -2.90015 52.7529)" fill="black"/>
<rect x="-2.90015" y="31.5771" width="10.5876" height="101.098" transform="rotate(-90 -2.90015 31.5771)" fill="black"/>
<rect x="-2.90015" y="10.4023" width="10.5876" height="101.098" transform="rotate(-90 -2.90015 10.4023)" fill="black"/>
</g>
<rect opacity="0.35" x="35.4085" y="138.583" width="8.44116" height="24.144" transform="rotate(-90 35.4085 138.583)" stroke="#E1EBF7" stroke-width="0.55528"/>
<rect opacity="0.35" x="35.4085" y="9.99873" width="8.44116" height="24.144" transform="rotate(-90 35.4085 9.99873)" stroke="#E1EBF7" stroke-width="0.55528"/>
<line opacity="0.35" x1="93.239" y1="74.2874" x2="1.78432" y2="74.2874" stroke="#E1EBF7" stroke-width="0.672461"/>
<circle opacity="0.35" cx="47.0938" cy="73.8948" r="13.4628" transform="rotate(-90 47.0938 73.8948)" stroke="#E1EBF7" stroke-width="0.554508"/>
<path opacity="0.35" fill-rule="evenodd" clip-rule="evenodd" d="M35.9106 115.682L23.5821 115.682H23.0269V116.238V139.336V139.891H23.5821L71.3795 139.891H71.9348V139.336V116.238V115.682H71.3795L59.3235 115.682C59.3104 115.661 59.2972 115.64 59.284 115.619C56.8577 111.728 52.5397 109.14 47.6171 109.14C42.6944 109.14 38.3764 111.728 35.9501 115.619C35.9369 115.64 35.9237 115.661 35.9106 115.682ZM47.6171 109.694C52.2156 109.694 56.265 112.048 58.6251 115.619H36.609C38.9691 112.048 43.0185 109.694 47.6171 109.694ZM23.5821 139.336L23.5821 116.238L71.3795 116.238V139.336L23.5821 139.336Z" fill="#E1EBF7"/>
<path opacity="0.35" fill-rule="evenodd" clip-rule="evenodd" d="M23.5816 24.9316L23.5816 1.8336L71.379 1.8336L71.379 24.9316L23.5816 24.9316ZM23.0264 25.4869L23.0264 24.9316L23.0264 1.8336L23.0264 1.27832L23.5816 1.27832L71.379 1.27832L71.9343 1.27832V1.8336L71.9343 24.9316V25.4869H71.379H59.323C59.3098 25.5083 59.2966 25.5297 59.2833 25.551C56.857 29.4414 52.5389 32.0301 47.6163 32.0301C42.6936 32.0301 38.3756 29.4414 35.9493 25.551C35.936 25.5297 35.9228 25.5083 35.9096 25.4869H23.5816H23.0264ZM47.6163 31.4756C43.0177 31.4756 38.9683 29.1217 36.6083 25.551L58.6243 25.551C56.2643 29.1217 52.2148 31.4756 47.6163 31.4756Z" fill="#E1EBF7"/>
<g filter="url(#filter0_d_46_3409)">
<rect x="42.1726" y="126.914" width="10.8218" height="10.8218" rx="5.41092" fill="#1A487C" shape-rendering="crispEdges"/>
<rect x="42.3366" y="127.078" width="10.4939" height="10.4939" rx="5.24695" stroke="#87B2F7" stroke-width="0.327935" shape-rendering="crispEdges"/>
</g>
<g filter="url(#filter1_d_46_3409)">
<rect x="27.9158" y="103.585" width="10.8218" height="10.8218" rx="5.41092" fill="#1A487C" shape-rendering="crispEdges"/>
<rect x="28.0797" y="103.749" width="10.4939" height="10.4939" rx="5.24695" stroke="#87B2F7" stroke-width="0.327935" shape-rendering="crispEdges"/>
</g>
<g filter="url(#filter2_d_46_3409)">
<rect x="4.58618" y="89.5869" width="10.8218" height="10.8218" rx="5.41092" fill="#1A487C" shape-rendering="crispEdges"/>
<rect x="4.75015" y="89.7509" width="10.4939" height="10.4939" rx="5.24695" stroke="#87B2F7" stroke-width="0.327935" shape-rendering="crispEdges"/>
</g>
<g filter="url(#filter3_d_46_3409)">
<rect x="80.0188" y="89.5869" width="10.8218" height="10.8218" rx="5.41092" fill="#1A487C" shape-rendering="crispEdges"/>
<rect x="80.1828" y="89.7509" width="10.4939" height="10.4939" rx="5.24695" stroke="#87B2F7" stroke-width="0.327935" shape-rendering="crispEdges"/>
</g>
<g filter="url(#filter4_d_46_3409)">
<rect x="41.9736" y="58.7217" width="10.8218" height="10.8218" rx="5.41092" fill="#1A487C" shape-rendering="crispEdges"/>
<rect x="42.1376" y="58.8856" width="10.4939" height="10.4939" rx="5.24695" stroke="#87B2F7" stroke-width="0.327935" shape-rendering="crispEdges"/>
</g>
<g filter="url(#filter5_d_46_3409)">
<rect x="41.9736" y="30.7217" width="10.8218" height="10.8218" rx="5.41092" fill="#1A487C" shape-rendering="crispEdges"/>
<rect x="42.1376" y="30.8856" width="10.4939" height="10.4939" rx="5.24695" stroke="#87B2F7" stroke-width="0.327935" shape-rendering="crispEdges"/>
</g>
<g filter="url(#filter6_d_46_3409)">
<rect x="56.689" y="103.585" width="10.8218" height="10.8218" rx="5.41092" fill="#1A487C" shape-rendering="crispEdges"/>
<rect x="56.8529" y="103.749" width="10.4939" height="10.4939" rx="5.24695" stroke="#87B2F7" stroke-width="0.327935" shape-rendering="crispEdges"/>
</g>
<g filter="url(#filter7_d_46_3409)">
<rect x="27.9158" y="75.0703" width="10.8218" height="10.8218" rx="5.41092" fill="#1A487C" shape-rendering="crispEdges"/>
<rect x="28.0797" y="75.2343" width="10.4939" height="10.4939" rx="5.24695" stroke="#87B2F7" stroke-width="0.327935" shape-rendering="crispEdges"/>
</g>
<g filter="url(#filter8_d_46_3409)">
<rect x="56.689" y="75.0703" width="10.8218" height="10.8218" rx="5.41092" fill="#1A487C" shape-rendering="crispEdges"/>
<rect x="56.8529" y="75.2343" width="10.4939" height="10.4939" rx="5.24695" stroke="#87B2F7" stroke-width="0.327935" shape-rendering="crispEdges"/>
</g>
<g filter="url(#filter9_d_46_3409)">
<rect x="12.9736" y="41.7217" width="10.8218" height="10.8218" rx="5.41092" fill="#1A487C" shape-rendering="crispEdges"/>
<rect x="13.1376" y="41.8856" width="10.4939" height="10.4939" rx="5.24695" stroke="#87B2F7" stroke-width="0.327935" shape-rendering="crispEdges"/>
</g>
<g filter="url(#filter10_d_46_3409)">
<rect x="68.9736" y="41.7217" width="10.8218" height="10.8218" rx="5.41092" fill="#1A487C" shape-rendering="crispEdges"/>
<rect x="69.1376" y="41.8856" width="10.4939" height="10.4939" rx="5.24695" stroke="#87B2F7" stroke-width="0.327935" shape-rendering="crispEdges"/>
</g>
</g>
<rect x="1.41235" y="1.13013" width="92.4725" height="139.635" rx="4.20288" stroke="#E1EBF7" stroke-width="1.68115"/>
<defs>
<filter id="filter0_d_46_3409" x="41.5167" y="126.914" width="12.1335" height="12.7899" filterUnits="userSpaceOnUse" color-interpolation-filters="sRGB">
<feFlood flood-opacity="0" result="BackgroundImageFix"/>
<feColorMatrix in="SourceAlpha" type="matrix" values="0 0 0 0 0 0 0 0 0 0 0 0 0 0 0 0 0 0 127 0" result="hardAlpha"/>
<feOffset dy="1.31174"/>
<feGaussianBlur stdDeviation="0.327935"/>
<feComposite in2="hardAlpha" operator="out"/>
<feColorMatrix type="matrix" values="0 0 0 0 0 0 0 0 0 0 0 0 0 0 0 0 0 0 0.25 0"/>
<feBlend mode="normal" in2="BackgroundImageFix" result="effect1_dropShadow_46_3409"/>
<feBlend mode="normal" in="SourceGraphic" in2="effect1_dropShadow_46_3409" result="shape"/>
</filter>
<filter id="filter1_d_46_3409" x="27.2599" y="103.585" width="12.1335" height="12.7899" filterUnits="userSpaceOnUse" color-interpolation-filters="sRGB">
<feFlood flood-opacity="0" result="BackgroundImageFix"/>
<feColorMatrix in="SourceAlpha" type="matrix" values="0 0 0 0 0 0 0 0 0 0 0 0 0 0 0 0 0 0 127 0" result="hardAlpha"/>
<feOffset dy="1.31174"/>
<feGaussianBlur stdDeviation="0.327935"/>
<feComposite in2="hardAlpha" operator="out"/>
<feColorMatrix type="matrix" values="0 0 0 0 0 0 0 0 0 0 0 0 0 0 0 0 0 0 0.25 0"/>
<feBlend mode="normal" in2="BackgroundImageFix" result="effect1_dropShadow_46_3409"/>
<feBlend mode="normal" in="SourceGraphic" in2="effect1_dropShadow_46_3409" result="shape"/>
</filter>
<filter id="filter2_d_46_3409" x="3.93031" y="89.5869" width="12.1335" height="12.7899" filterUnits="userSpaceOnUse" color-interpolation-filters="sRGB">
<feFlood flood-opacity="0" result="BackgroundImageFix"/>
<feColorMatrix in="SourceAlpha" type="matrix" values="0 0 0 0 0 0 0 0 0 0 0 0 0 0 0 0 0 0 127 0" result="hardAlpha"/>
<feOffset dy="1.31174"/>
<feGaussianBlur stdDeviation="0.327935"/>
<feComposite in2="hardAlpha" operator="out"/>
<feColorMatrix type="matrix" values="0 0 0 0 0 0 0 0 0 0 0 0 0 0 0 0 0 0 0.25 0"/>
<feBlend mode="normal" in2="BackgroundImageFix" result="effect1_dropShadow_46_3409"/>
<feBlend mode="normal" in="SourceGraphic" in2="effect1_dropShadow_46_3409" result="shape"/>
</filter>
<filter id="filter3_d_46_3409" x="79.3629" y="89.5869" width="12.1335" height="12.7899" filterUnits="userSpaceOnUse" color-interpolation-filters="sRGB">
<feFlood flood-opacity="0" result="BackgroundImageFix"/>
<feColorMatrix in="SourceAlpha" type="matrix" values="0 0 0 0 0 0 0 0 0 0 0 0 0 0 0 0 0 0 127 0" result="hardAlpha"/>
<feOffset dy="1.31174"/>
<feGaussianBlur stdDeviation="0.327935"/>
<feComposite in2="hardAlpha" operator="out"/>
<feColorMatrix type="matrix" values="0 0 0 0 0 0 0 0 0 0 0 0 0 0 0 0 0 0 0.25 0"/>
<feBlend mode="normal" in2="BackgroundImageFix" result="effect1_dropShadow_46_3409"/>
<feBlend mode="normal" in="SourceGraphic" in2="effect1_dropShadow_46_3409" result="shape"/>
</filter>
<filter id="filter4_d_46_3409" x="41.3178" y="58.7217" width="12.1335" height="12.7899" filterUnits="userSpaceOnUse" color-interpolation-filters="sRGB">
<feFlood flood-opacity="0" result="BackgroundImageFix"/>
<feColorMatrix in="SourceAlpha" type="matrix" values="0 0 0 0 0 0 0 0 0 0 0 0 0 0 0 0 0 0 127 0" result="hardAlpha"/>
<feOffset dy="1.31174"/>
<feGaussianBlur stdDeviation="0.327935"/>
<feComposite in2="hardAlpha" operator="out"/>
<feColorMatrix type="matrix" values="0 0 0 0 0 0 0 0 0 0 0 0 0 0 0 0 0 0 0.25 0"/>
<feBlend mode="normal" in2="BackgroundImageFix" result="effect1_dropShadow_46_3409"/>
<feBlend mode="normal" in="SourceGraphic" in2="effect1_dropShadow_46_3409" result="shape"/>
</filter>
<filter id="filter5_d_46_3409" x="41.3178" y="30.7217" width="12.1335" height="12.7899" filterUnits="userSpaceOnUse" color-interpolation-filters="sRGB">
<feFlood flood-opacity="0" result="BackgroundImageFix"/>
<feColorMatrix in="SourceAlpha" type="matrix" values="0 0 0 0 0 0 0 0 0 0 0 0 0 0 0 0 0 0 127 0" result="hardAlpha"/>
<feOffset dy="1.31174"/>
<feGaussianBlur stdDeviation="0.327935"/>
<feComposite in2="hardAlpha" operator="out"/>
<feColorMatrix type="matrix" values="0 0 0 0 0 0 0 0 0 0 0 0 0 0 0 0 0 0 0.25 0"/>
<feBlend mode="normal" in2="BackgroundImageFix" result="effect1_dropShadow_46_3409"/>
<feBlend mode="normal" in="SourceGraphic" in2="effect1_dropShadow_46_3409" result="shape"/>
</filter>
<filter id="filter6_d_46_3409" x="56.0331" y="103.585" width="12.1335" height="12.7899" filterUnits="userSpaceOnUse" color-interpolation-filters="sRGB">
<feFlood flood-opacity="0" result="BackgroundImageFix"/>
<feColorMatrix in="SourceAlpha" type="matrix" values="0 0 0 0 0 0 0 0 0 0 0 0 0 0 0 0 0 0 127 0" result="hardAlpha"/>
<feOffset dy="1.31174"/>
<feGaussianBlur stdDeviation="0.327935"/>
<feComposite in2="hardAlpha" operator="out"/>
<feColorMatrix type="matrix" values="0 0 0 0 0 0 0 0 0 0 0 0 0 0 0 0 0 0 0.25 0"/>
<feBlend mode="normal" in2="BackgroundImageFix" result="effect1_dropShadow_46_3409"/>
<feBlend mode="normal" in="SourceGraphic" in2="effect1_dropShadow_46_3409" result="shape"/>
</filter>
<filter id="filter7_d_46_3409" x="27.2599" y="75.0703" width="12.1335" height="12.7899" filterUnits="userSpaceOnUse" color-interpolation-filters="sRGB">
<feFlood flood-opacity="0" result="BackgroundImageFix"/>
<feColorMatrix in="SourceAlpha" type="matrix" values="0 0 0 0 0 0 0 0 0 0 0 0 0 0 0 0 0 0 127 0" result="hardAlpha"/>
<feOffset dy="1.31174"/>
<feGaussianBlur stdDeviation="0.327935"/>
<feComposite in2="hardAlpha" operator="out"/>
<feColorMatrix type="matrix" values="0 0 0 0 0 0 0 0 0 0 0 0 0 0 0 0 0 0 0.25 0"/>
<feBlend mode="normal" in2="BackgroundImageFix" result="effect1_dropShadow_46_3409"/>
<feBlend mode="normal" in="SourceGraphic" in2="effect1_dropShadow_46_3409" result="shape"/>
</filter>
<filter id="filter8_d_46_3409" x="56.0331" y="75.0703" width="12.1335" height="12.7899" filterUnits="userSpaceOnUse" color-interpolation-filters="sRGB">
<feFlood flood-opacity="0" result="BackgroundImageFix"/>
<feColorMatrix in="SourceAlpha" type="matrix" values="0 0 0 0 0 0 0 0 0 0 0 0 0 0 0 0 0 0 127 0" result="hardAlpha"/>
<feOffset dy="1.31174"/>
<feGaussianBlur stdDeviation="0.327935"/>
<feComposite in2="hardAlpha" operator="out"/>
<feColorMatrix type="matrix" values="0 0 0 0 0 0 0 0 0 0 0 0 0 0 0 0 0 0 0.25 0"/>
<feBlend mode="normal" in2="BackgroundImageFix" result="effect1_dropShadow_46_3409"/>
<feBlend mode="normal" in="SourceGraphic" in2="effect1_dropShadow_46_3409" result="shape"/>
</filter>
<filter id="filter9_d_46_3409" x="12.3178" y="41.7217" width="12.1335" height="12.7899" filterUnits="userSpaceOnUse" color-interpolation-filters="sRGB">
<feFlood flood-opacity="0" result="BackgroundImageFix"/>
<feColorMatrix in="SourceAlpha" type="matrix" values="0 0 0 0 0 0 0 0 0 0 0 0 0 0 0 0 0 0 127 0" result="hardAlpha"/>
<feOffset dy="1.31174"/>
<feGaussianBlur stdDeviation="0.327935"/>
<feComposite in2="hardAlpha" operator="out"/>
<feColorMatrix type="matrix" values="0 0 0 0 0 0 0 0 0 0 0 0 0 0 0 0 0 0 0.25 0"/>
<feBlend mode="normal" in2="BackgroundImageFix" result="effect1_dropShadow_46_3409"/>
<feBlend mode="normal" in="SourceGraphic" in2="effect1_dropShadow_46_3409" result="shape"/>
</filter>
<filter id="filter10_d_46_3409" x="68.3178" y="41.7217" width="12.1335" height="12.7899" filterUnits="userSpaceOnUse" color-interpolation-filters="sRGB">
<feFlood flood-opacity="0" result="BackgroundImageFix"/>
<feColorMatrix in="SourceAlpha" type="matrix" values="0 0 0 0 0 0 0 0 0 0 0 0 0 0 0 0 0 0 127 0" result="hardAlpha"/>
<feOffset dy="1.31174"/>
<feGaussianBlur stdDeviation="0.327935"/>
<feComposite in2="hardAlpha" operator="out"/>
<feColorMatrix type="matrix" values="0 0 0 0 0 0 0 0 0 0 0 0 0 0 0 0 0 0 0.25 0"/>
<feBlend mode="normal" in2="BackgroundImageFix" result="effect1_dropShadow_46_3409"/>
<feBlend mode="normal" in="SourceGraphic" in2="effect1_dropShadow_46_3409" result="shape"/>
</filter>
<clipPath id="clip0_46_3409">
<rect x="2.25293" y="1.9707" width="90.7913" height="137.954" rx="3.3623" fill="white"/>
</clipPath>
</defs>
</svg>
