<svg width="97" height="145" viewBox="0 0 97 145" fill="none" xmlns="http://www.w3.org/2000/svg">
<g clip-path="url(#clip0_46_2993)">
<rect x="2" y="2.47754" width="92.4322" height="140.447" rx="3.42307" fill="#5E7D16"/>
<g style="mix-blend-mode:overlay" opacity="0.17">
<rect x="-3.24658" y="140.41" width="10.779" height="102.925" transform="rotate(-90 -3.24658 140.41)" fill="black"/>
<rect x="-3.24658" y="118.852" width="10.779" height="102.925" transform="rotate(-90 -3.24658 118.852)" fill="black"/>
<rect x="-3.24658" y="97.2939" width="10.779" height="102.925" transform="rotate(-90 -3.24658 97.2939)" fill="black"/>
<rect x="-3.24658" y="75.7363" width="10.779" height="102.925" transform="rotate(-90 -3.24658 75.7363)" fill="black"/>
<rect x="-3.24658" y="54.1787" width="10.779" height="102.925" transform="rotate(-90 -3.24658 54.1787)" fill="black"/>
<rect x="-3.24658" y="32.6201" width="10.779" height="102.925" transform="rotate(-90 -3.24658 32.6201)" fill="black"/>
<rect x="-3.24658" y="11.0625" width="10.779" height="102.925" transform="rotate(-90 -3.24658 11.0625)" fill="black"/>
</g>
<rect opacity="0.35" x="35.7548" y="141.559" width="8.59372" height="24.5804" transform="rotate(-90 35.7548 141.559)" stroke="white" stroke-width="0.565316"/>
<rect opacity="0.35" x="35.7548" y="10.6519" width="8.59372" height="24.5804" transform="rotate(-90 35.7548 10.6519)" stroke="white" stroke-width="0.565316"/>
<line opacity="0.35" x1="94.6301" y1="76.1011" x2="1.52254" y2="76.1011" stroke="white" stroke-width="0.684615"/>
<circle opacity="0.35" cx="47.6509" cy="75.7011" r="13.7061" transform="rotate(-90 47.6509 75.7011)" stroke="white" stroke-width="0.56453"/>
<path opacity="0.35" fill-rule="evenodd" clip-rule="evenodd" d="M36.2657 118.244L23.7145 118.244H23.1492V118.809V142.325V142.89H23.7145L72.3757 142.89H72.941V142.325V118.809V118.244H72.3757L60.1017 118.244C60.0884 118.222 60.075 118.201 60.0615 118.179C57.5914 114.219 53.1953 111.583 48.1837 111.583C43.1721 111.583 38.776 114.219 36.3059 118.179C36.2924 118.201 36.279 118.222 36.2657 118.244ZM48.1837 112.148C52.8654 112.148 56.988 114.544 59.3907 118.179H36.9767C39.3794 114.544 43.502 112.148 48.1837 112.148ZM23.7145 142.325L23.7145 118.809L72.3757 118.809V142.325L23.7145 142.325Z" fill="white"/>
<path opacity="0.35" fill-rule="evenodd" clip-rule="evenodd" d="M23.714 25.8543L23.714 2.33875L72.3752 2.33875V25.8543L23.714 25.8543ZM23.1487 26.4196V25.8543V2.33875V1.77344L23.714 1.77344L72.3752 1.77344L72.9405 1.77344V2.33875V25.8543V26.4196H72.3752H60.1007C60.0875 26.4409 60.0743 26.4623 60.061 26.4835C57.5909 30.4442 53.1948 33.0797 48.1832 33.0797C43.1716 33.0797 38.7755 30.4442 36.3054 26.4835C36.2921 26.4623 36.2789 26.4409 36.2657 26.4196H23.714H23.1487ZM48.1832 32.5152C43.5015 32.5152 39.3789 30.1188 36.9762 26.4835L59.3902 26.4835C56.9875 30.1188 52.8649 32.5152 48.1832 32.5152Z" fill="white"/>
<g filter="url(#filter0_d_46_2993)">
<rect x="42.6411" y="129.68" width="11.0174" height="11.0174" rx="5.50872" fill="#1A487C" shape-rendering="crispEdges"/>
<rect x="42.808" y="129.847" width="10.6836" height="10.6836" rx="5.34178" stroke="#87B2F7" stroke-width="0.333862" shape-rendering="crispEdges"/>
</g>
<g filter="url(#filter1_d_46_2993)">
<rect x="28.1265" y="105.929" width="11.0174" height="11.0174" rx="5.50872" fill="#1A487C" shape-rendering="crispEdges"/>
<rect x="28.2934" y="106.096" width="10.6836" height="10.6836" rx="5.34178" stroke="#87B2F7" stroke-width="0.333862" shape-rendering="crispEdges"/>
</g>
<g filter="url(#filter2_d_46_2993)">
<rect x="4.37524" y="91.6777" width="11.0174" height="11.0174" rx="5.50872" fill="#1A487C" shape-rendering="crispEdges"/>
<rect x="4.54217" y="91.8447" width="10.6836" height="10.6836" rx="5.34178" stroke="#87B2F7" stroke-width="0.333862" shape-rendering="crispEdges"/>
</g>
<g filter="url(#filter3_d_46_2993)">
<rect x="81.1711" y="91.6777" width="11.0174" height="11.0174" rx="5.50872" fill="#1A487C" shape-rendering="crispEdges"/>
<rect x="81.3381" y="91.8447" width="10.6836" height="10.6836" rx="5.34178" stroke="#87B2F7" stroke-width="0.333862" shape-rendering="crispEdges"/>
</g>
<g filter="url(#filter4_d_46_2993)">
<rect x="14.9312" y="60.0098" width="11.0174" height="11.0174" rx="5.50872" fill="#1A487C" shape-rendering="crispEdges"/>
<rect x="15.0981" y="60.1767" width="10.6836" height="10.6836" rx="5.34178" stroke="#87B2F7" stroke-width="0.333862" shape-rendering="crispEdges"/>
</g>
<g filter="url(#filter5_d_46_2993)">
<rect x="70.6147" y="60.0098" width="11.0174" height="11.0174" rx="5.50872" fill="#1A487C" shape-rendering="crispEdges"/>
<rect x="70.7817" y="60.1767" width="10.6836" height="10.6836" rx="5.34178" stroke="#87B2F7" stroke-width="0.333862" shape-rendering="crispEdges"/>
</g>
<g filter="url(#filter6_d_46_2993)">
<rect x="57.4199" y="105.929" width="11.0174" height="11.0174" rx="5.50872" fill="#1A487C" shape-rendering="crispEdges"/>
<rect x="57.5869" y="106.096" width="10.6836" height="10.6836" rx="5.34178" stroke="#87B2F7" stroke-width="0.333862" shape-rendering="crispEdges"/>
</g>
<g filter="url(#filter7_d_46_2993)">
<rect x="28.1265" y="76.8994" width="11.0174" height="11.0174" rx="5.50872" fill="#1A487C" shape-rendering="crispEdges"/>
<rect x="28.2934" y="77.0663" width="10.6836" height="10.6836" rx="5.34178" stroke="#87B2F7" stroke-width="0.333862" shape-rendering="crispEdges"/>
</g>
<g filter="url(#filter8_d_46_2993)">
<rect x="57.4199" y="76.8994" width="11.0174" height="11.0174" rx="5.50872" fill="#1A487C" shape-rendering="crispEdges"/>
<rect x="57.5869" y="77.0663" width="10.6836" height="10.6836" rx="5.34178" stroke="#87B2F7" stroke-width="0.333862" shape-rendering="crispEdges"/>
</g>
<g filter="url(#filter9_d_46_2993)">
<rect x="28.1265" y="43.3828" width="11.0174" height="11.0174" rx="5.50872" fill="#1A487C" shape-rendering="crispEdges"/>
<rect x="28.2934" y="43.5497" width="10.6836" height="10.6836" rx="5.34178" stroke="#87B2F7" stroke-width="0.333862" shape-rendering="crispEdges"/>
</g>
<g filter="url(#filter10_d_46_2993)">
<rect x="57.4199" y="43.3828" width="11.0174" height="11.0174" rx="5.50872" fill="#1A487C" shape-rendering="crispEdges"/>
<rect x="57.5869" y="43.5497" width="10.6836" height="10.6836" rx="5.34178" stroke="#87B2F7" stroke-width="0.333862" shape-rendering="crispEdges"/>
</g>
</g>
<rect x="1.14423" y="1.62177" width="94.1438" height="142.158" rx="4.27884" stroke="white" stroke-width="1.71154"/>
<defs>
<filter id="filter0_d_46_2993" x="41.9734" y="129.68" width="12.3528" height="13.0207" filterUnits="userSpaceOnUse" color-interpolation-filters="sRGB">
<feFlood flood-opacity="0" result="BackgroundImageFix"/>
<feColorMatrix in="SourceAlpha" type="matrix" values="0 0 0 0 0 0 0 0 0 0 0 0 0 0 0 0 0 0 127 0" result="hardAlpha"/>
<feOffset dy="1.33545"/>
<feGaussianBlur stdDeviation="0.333862"/>
<feComposite in2="hardAlpha" operator="out"/>
<feColorMatrix type="matrix" values="0 0 0 0 0 0 0 0 0 0 0 0 0 0 0 0 0 0 0.25 0"/>
<feBlend mode="normal" in2="BackgroundImageFix" result="effect1_dropShadow_46_2993"/>
<feBlend mode="normal" in="SourceGraphic" in2="effect1_dropShadow_46_2993" result="shape"/>
</filter>
<filter id="filter1_d_46_2993" x="27.4587" y="105.929" width="12.3528" height="13.0207" filterUnits="userSpaceOnUse" color-interpolation-filters="sRGB">
<feFlood flood-opacity="0" result="BackgroundImageFix"/>
<feColorMatrix in="SourceAlpha" type="matrix" values="0 0 0 0 0 0 0 0 0 0 0 0 0 0 0 0 0 0 127 0" result="hardAlpha"/>
<feOffset dy="1.33545"/>
<feGaussianBlur stdDeviation="0.333862"/>
<feComposite in2="hardAlpha" operator="out"/>
<feColorMatrix type="matrix" values="0 0 0 0 0 0 0 0 0 0 0 0 0 0 0 0 0 0 0.25 0"/>
<feBlend mode="normal" in2="BackgroundImageFix" result="effect1_dropShadow_46_2993"/>
<feBlend mode="normal" in="SourceGraphic" in2="effect1_dropShadow_46_2993" result="shape"/>
</filter>
<filter id="filter2_d_46_2993" x="3.70752" y="91.6777" width="12.3528" height="13.0207" filterUnits="userSpaceOnUse" color-interpolation-filters="sRGB">
<feFlood flood-opacity="0" result="BackgroundImageFix"/>
<feColorMatrix in="SourceAlpha" type="matrix" values="0 0 0 0 0 0 0 0 0 0 0 0 0 0 0 0 0 0 127 0" result="hardAlpha"/>
<feOffset dy="1.33545"/>
<feGaussianBlur stdDeviation="0.333862"/>
<feComposite in2="hardAlpha" operator="out"/>
<feColorMatrix type="matrix" values="0 0 0 0 0 0 0 0 0 0 0 0 0 0 0 0 0 0 0.25 0"/>
<feBlend mode="normal" in2="BackgroundImageFix" result="effect1_dropShadow_46_2993"/>
<feBlend mode="normal" in="SourceGraphic" in2="effect1_dropShadow_46_2993" result="shape"/>
</filter>
<filter id="filter3_d_46_2993" x="80.5034" y="91.6777" width="12.3528" height="13.0207" filterUnits="userSpaceOnUse" color-interpolation-filters="sRGB">
<feFlood flood-opacity="0" result="BackgroundImageFix"/>
<feColorMatrix in="SourceAlpha" type="matrix" values="0 0 0 0 0 0 0 0 0 0 0 0 0 0 0 0 0 0 127 0" result="hardAlpha"/>
<feOffset dy="1.33545"/>
<feGaussianBlur stdDeviation="0.333862"/>
<feComposite in2="hardAlpha" operator="out"/>
<feColorMatrix type="matrix" values="0 0 0 0 0 0 0 0 0 0 0 0 0 0 0 0 0 0 0.25 0"/>
<feBlend mode="normal" in2="BackgroundImageFix" result="effect1_dropShadow_46_2993"/>
<feBlend mode="normal" in="SourceGraphic" in2="effect1_dropShadow_46_2993" result="shape"/>
</filter>
<filter id="filter4_d_46_2993" x="14.2634" y="60.0098" width="12.3528" height="13.0207" filterUnits="userSpaceOnUse" color-interpolation-filters="sRGB">
<feFlood flood-opacity="0" result="BackgroundImageFix"/>
<feColorMatrix in="SourceAlpha" type="matrix" values="0 0 0 0 0 0 0 0 0 0 0 0 0 0 0 0 0 0 127 0" result="hardAlpha"/>
<feOffset dy="1.33545"/>
<feGaussianBlur stdDeviation="0.333862"/>
<feComposite in2="hardAlpha" operator="out"/>
<feColorMatrix type="matrix" values="0 0 0 0 0 0 0 0 0 0 0 0 0 0 0 0 0 0 0.25 0"/>
<feBlend mode="normal" in2="BackgroundImageFix" result="effect1_dropShadow_46_2993"/>
<feBlend mode="normal" in="SourceGraphic" in2="effect1_dropShadow_46_2993" result="shape"/>
</filter>
<filter id="filter5_d_46_2993" x="69.947" y="60.0098" width="12.3528" height="13.0207" filterUnits="userSpaceOnUse" color-interpolation-filters="sRGB">
<feFlood flood-opacity="0" result="BackgroundImageFix"/>
<feColorMatrix in="SourceAlpha" type="matrix" values="0 0 0 0 0 0 0 0 0 0 0 0 0 0 0 0 0 0 127 0" result="hardAlpha"/>
<feOffset dy="1.33545"/>
<feGaussianBlur stdDeviation="0.333862"/>
<feComposite in2="hardAlpha" operator="out"/>
<feColorMatrix type="matrix" values="0 0 0 0 0 0 0 0 0 0 0 0 0 0 0 0 0 0 0.25 0"/>
<feBlend mode="normal" in2="BackgroundImageFix" result="effect1_dropShadow_46_2993"/>
<feBlend mode="normal" in="SourceGraphic" in2="effect1_dropShadow_46_2993" result="shape"/>
</filter>
<filter id="filter6_d_46_2993" x="56.7522" y="105.929" width="12.3528" height="13.0207" filterUnits="userSpaceOnUse" color-interpolation-filters="sRGB">
<feFlood flood-opacity="0" result="BackgroundImageFix"/>
<feColorMatrix in="SourceAlpha" type="matrix" values="0 0 0 0 0 0 0 0 0 0 0 0 0 0 0 0 0 0 127 0" result="hardAlpha"/>
<feOffset dy="1.33545"/>
<feGaussianBlur stdDeviation="0.333862"/>
<feComposite in2="hardAlpha" operator="out"/>
<feColorMatrix type="matrix" values="0 0 0 0 0 0 0 0 0 0 0 0 0 0 0 0 0 0 0.25 0"/>
<feBlend mode="normal" in2="BackgroundImageFix" result="effect1_dropShadow_46_2993"/>
<feBlend mode="normal" in="SourceGraphic" in2="effect1_dropShadow_46_2993" result="shape"/>
</filter>
<filter id="filter7_d_46_2993" x="27.4587" y="76.8994" width="12.3528" height="13.0207" filterUnits="userSpaceOnUse" color-interpolation-filters="sRGB">
<feFlood flood-opacity="0" result="BackgroundImageFix"/>
<feColorMatrix in="SourceAlpha" type="matrix" values="0 0 0 0 0 0 0 0 0 0 0 0 0 0 0 0 0 0 127 0" result="hardAlpha"/>
<feOffset dy="1.33545"/>
<feGaussianBlur stdDeviation="0.333862"/>
<feComposite in2="hardAlpha" operator="out"/>
<feColorMatrix type="matrix" values="0 0 0 0 0 0 0 0 0 0 0 0 0 0 0 0 0 0 0.25 0"/>
<feBlend mode="normal" in2="BackgroundImageFix" result="effect1_dropShadow_46_2993"/>
<feBlend mode="normal" in="SourceGraphic" in2="effect1_dropShadow_46_2993" result="shape"/>
</filter>
<filter id="filter8_d_46_2993" x="56.7522" y="76.8994" width="12.3528" height="13.0207" filterUnits="userSpaceOnUse" color-interpolation-filters="sRGB">
<feFlood flood-opacity="0" result="BackgroundImageFix"/>
<feColorMatrix in="SourceAlpha" type="matrix" values="0 0 0 0 0 0 0 0 0 0 0 0 0 0 0 0 0 0 127 0" result="hardAlpha"/>
<feOffset dy="1.33545"/>
<feGaussianBlur stdDeviation="0.333862"/>
<feComposite in2="hardAlpha" operator="out"/>
<feColorMatrix type="matrix" values="0 0 0 0 0 0 0 0 0 0 0 0 0 0 0 0 0 0 0.25 0"/>
<feBlend mode="normal" in2="BackgroundImageFix" result="effect1_dropShadow_46_2993"/>
<feBlend mode="normal" in="SourceGraphic" in2="effect1_dropShadow_46_2993" result="shape"/>
</filter>
<filter id="filter9_d_46_2993" x="27.4587" y="43.3828" width="12.3528" height="13.0207" filterUnits="userSpaceOnUse" color-interpolation-filters="sRGB">
<feFlood flood-opacity="0" result="BackgroundImageFix"/>
<feColorMatrix in="SourceAlpha" type="matrix" values="0 0 0 0 0 0 0 0 0 0 0 0 0 0 0 0 0 0 127 0" result="hardAlpha"/>
<feOffset dy="1.33545"/>
<feGaussianBlur stdDeviation="0.333862"/>
<feComposite in2="hardAlpha" operator="out"/>
<feColorMatrix type="matrix" values="0 0 0 0 0 0 0 0 0 0 0 0 0 0 0 0 0 0 0.25 0"/>
<feBlend mode="normal" in2="BackgroundImageFix" result="effect1_dropShadow_46_2993"/>
<feBlend mode="normal" in="SourceGraphic" in2="effect1_dropShadow_46_2993" result="shape"/>
</filter>
<filter id="filter10_d_46_2993" x="56.7522" y="43.3828" width="12.3528" height="13.0207" filterUnits="userSpaceOnUse" color-interpolation-filters="sRGB">
<feFlood flood-opacity="0" result="BackgroundImageFix"/>
<feColorMatrix in="SourceAlpha" type="matrix" values="0 0 0 0 0 0 0 0 0 0 0 0 0 0 0 0 0 0 127 0" result="hardAlpha"/>
<feOffset dy="1.33545"/>
<feGaussianBlur stdDeviation="0.333862"/>
<feComposite in2="hardAlpha" operator="out"/>
<feColorMatrix type="matrix" values="0 0 0 0 0 0 0 0 0 0 0 0 0 0 0 0 0 0 0.25 0"/>
<feBlend mode="normal" in2="BackgroundImageFix" result="effect1_dropShadow_46_2993"/>
<feBlend mode="normal" in="SourceGraphic" in2="effect1_dropShadow_46_2993" result="shape"/>
</filter>
<clipPath id="clip0_46_2993">
<rect x="2" y="2.47754" width="92.4322" height="140.447" rx="3.42307" fill="white"/>
</clipPath>
</defs>
</svg>
