<svg width="1920" height="1080" viewBox="0 0 1920 1080" fill="none" xmlns="http://www.w3.org/2000/svg">
<g clip-path="url(#clip0_78_254)">
<rect width="1080" height="1920" transform="translate(1920) rotate(90)" fill="white"/>
<g clip-path="url(#clip1_78_254)">
<rect width="2070.57" height="1164.69" transform="translate(-98.7734 -35)" fill="url(#paint0_radial_78_254)"/>
<g style="mix-blend-mode:overlay" opacity="0.35" clip-path="url(#clip2_78_254)">
<line x1="562.419" y1="-255.954" x2="-600.117" y2="906.582" stroke="white" stroke-width="94.9009"/>
<line x1="693.987" y1="-102.819" x2="-468.549" y2="1059.72" stroke="white" stroke-width="94.9009"/>
<line x1="970.062" y1="-83.4064" x2="-192.474" y2="1079.13" stroke="white" stroke-width="94.9009"/>
<line x1="1728.19" y1="-550.362" x2="14.5827" y2="1163.25" stroke="white" stroke-width="94.9009"/>
<line x1="1947.11" y1="-487.814" x2="233.501" y2="1225.79" stroke="white" stroke-width="94.9009"/>
<line x1="2150.93" y1="-410.168" x2="437.323" y2="1303.44" stroke="white" stroke-width="94.9009"/>
<line x1="2345.05" y1="-329.286" x2="631.438" y2="1384.32" stroke="white" stroke-width="94.9009"/>
<line x1="2560.73" y1="-258.11" x2="847.122" y2="1455.5" stroke="white" stroke-width="94.9009"/>
<line x1="2713.87" y1="-124.386" x2="1000.26" y2="1589.22" stroke="white" stroke-width="94.9009"/>
<line x1="2885.34" y1="-5.76045" x2="1171.73" y2="1707.85" stroke="white" stroke-width="94.9009"/>
</g>
</g>
<g style="mix-blend-mode:overlay">
<line x1="853.044" y1="1086.41" x2="1013.64" y2="6.41172" stroke="white" stroke-width="8"/>
</g>
</g>
<defs>
<radialGradient id="paint0_radial_78_254" cx="0" cy="0" r="1" gradientUnits="userSpaceOnUse" gradientTransform="translate(1035.28 582.346) rotate(90) scale(890.235 890.235)">
<stop stop-color="#215B92"/>
<stop offset="0.985" stop-color="#051321"/>
</radialGradient>
<clipPath id="clip0_78_254">
<rect width="1080" height="1920" fill="white" transform="translate(1920) rotate(90)"/>
</clipPath>
<clipPath id="clip1_78_254">
<rect width="2070.57" height="1164.69" fill="white" transform="translate(-98.7734 -35)"/>
</clipPath>
<clipPath id="clip2_78_254">
<rect width="2070.57" height="1164.69" fill="white" transform="translate(-98.7734 -34.9995)"/>
</clipPath>
</defs>
</svg>
